<svg xmlns="http://www.w3.org/2000/svg" viewBox="11.77 7.62 8.50 10.50">
  <defs>
    <linearGradient id="g" x1="0" y1="0" x2="0" y2="1">
      <stop offset="0%" stop-color="#d8dce0"/>
      <stop offset="100%" stop-color="#b8c0c8"/>
    </linearGradient>
  </defs>
  <path fill="url(#g)" d="m 18.765861,11.016501 v 5.01698 a 1.0562058,1.0562058 0 0 1 -1.056205,1.05621 h -4.224824 a 1.0562058,1.0562058 0 0 1 -1.056204,-1.05621 V 9.6962504 A 1.0562058,1.0562058 0 0 1 13.484832,8.6400407 H 16.3894 Z"/>
  <path fill="#505860" d="m 18.765862,11.016506 v 5.016977 a 1.0562058,1.0562058 0 0 1 -1.056206,1.056206 H 13.484833 A 1.0562058,1.0562058 0 0 1 12.428627,16.033483 V 9.6962483 a 1.0562058,1.0562058 0 0 1 1.056206,-1.0562058 h 2.904566 z m -1.584309,0 A 0.79215435,0.79215435 0 0 1 16.389399,10.224351 V 9.1681454 H 13.484833 A 0.5281029,0.5281029 0 0 0 12.95673,9.6962483 v 6.3372347 a 0.5281029,0.5281029 0 0 0 0.528103,0.528103 h 4.224823 a 0.5281029,0.5281029 0 0 0 0.528103,-0.528103 v -5.016977 z"/>
</svg>