<svg xmlns="http://www.w3.org/2000/svg" viewBox="11.77 231.68 8.50 10.50">
  <defs>
    <linearGradient id="g" x1="0" y1="0" x2="0" y2="1">
      <stop offset="0%" stop-color="#b8ecf5"/>
      <stop offset="100%" stop-color="#90dce8"/>
    </linearGradient>
  </defs>
  <path fill="url(#g)" d="m 18.765861,235.08375 v 5.01698 a 1.0562058,1.0562058 0 0 1 -1.056205,1.05621 h -4.224824 a 1.0562058,1.0562058 0 0 1 -1.056204,-1.05621 v -6.33723 a 1.0562058,1.0562058 0 0 1 1.056204,-1.05621 H 16.3894 Z"/>
  <path fill="#008090" d="m 16.901309,237.56103 c -0.100098,0.062 -0.178344,0.13182 -0.234737,0.20936 -0.05639,0.0761 -0.09587,0.17411 -0.118426,0.29395 -0.02256,0.11842 -0.03384,0.27069 -0.03384,0.45678 0,0.13958 -0.0028,0.2425 -0.0085,0.30876 -0.007,0.0663 -0.01974,0.11631 -0.03807,0.15014 -0.01974,0.0352 -0.043,0.0578 -0.06979,0.0677 -0.02679,0.0113 -0.07261,0.0219 -0.137459,0.0317 -0.05357,0.007 -0.09798,0.0331 -0.133229,0.0782 -0.03524,0.0451 -0.05287,0.10433 -0.05287,0.17764 0,0.17059 0.103623,0.25589 0.310868,0.25589 0.128295,0 0.243197,-0.0268 0.344705,-0.0804 0.100098,-0.0536 0.177638,-0.12971 0.232622,-0.2284 0.05498,-0.0973 0.08318,-0.20936 0.08459,-0.33624 0.0042,-0.2143 0.0085,-0.3863 0.01269,-0.516 0.0042,-0.12971 0.01058,-0.21359 0.01903,-0.25166 0.02115,-0.0944 0.05287,-0.16565 0.09516,-0.21359 0.04088,-0.0479 0.09516,-0.0923 0.162835,-0.13322 0.06626,-0.0423 0.113492,-0.0797 0.141688,-0.11209 0.0282,-0.0338 0.0423,-0.0867 0.0423,-0.1586 0,-0.10433 -0.04089,-0.18258 -0.122656,-0.23474 -0.101507,-0.0634 -0.173408,-0.11702 -0.215703,-0.16072 -0.0437,-0.0451 -0.07402,-0.10221 -0.09093,-0.17129 -0.01833,-0.0705 -0.0289,-0.14663 -0.03172,-0.2284 -0.0028,-0.0832 -0.007,-0.28196 -0.01269,-0.59636 -0.0042,-0.19455 -0.06556,-0.34964 -0.183983,-0.46524 -0.119836,-0.11702 -0.279147,-0.17553 -0.477933,-0.17553 -0.207246,0 -0.310868,0.0839 -0.310868,0.25166 0,0.0761 0.01762,0.13605 0.05287,0.17975 0.03384,0.0437 0.07825,0.0691 0.13323,0.0761 0.08177,0.0113 0.138868,0.0282 0.171294,0.0508 0.03243,0.0225 0.05357,0.0663 0.06344,0.13111 0.0099,0.0648 0.01622,0.19033 0.01903,0.37643 0.0028,0.18187 0.0141,0.33131 0.03384,0.44832 0.01833,0.11561 0.05569,0.2143 0.112082,0.29607 0.05498,0.0818 0.135344,0.15579 0.241081,0.22205 z m -2.491781,0 c 0.100098,0.062 0.178344,0.13182 0.234737,0.20936 0.05639,0.0761 0.09587,0.17411 0.118426,0.29395 0.02256,0.11842 0.03384,0.27069 0.03384,0.45678 0,0.13958 0.0028,0.2425 0.0085,0.30876 0.007,0.0663 0.01974,0.11631 0.03807,0.15014 0.01974,0.0352 0.043,0.0578 0.06979,0.0677 0.02679,0.0113 0.07261,0.0219 0.137459,0.0317 0.05357,0.007 0.09798,0.0331 0.133229,0.0782 0.03524,0.0451 0.05287,0.10433 0.05287,0.17764 0,0.17059 -0.103623,0.25589 -0.310868,0.25589 -0.128295,0 -0.243197,-0.0268 -0.344705,-0.0804 -0.100098,-0.0536 -0.177638,-0.12971 -0.232622,-0.2284 -0.05498,-0.0973 -0.08318,-0.20936 -0.08459,-0.33624 -0.0042,-0.2143 -0.0085,-0.3863 -0.01269,-0.516 -0.0042,-0.12971 -0.01057,-0.21359 -0.01903,-0.25166 -0.02115,-0.0944 -0.05287,-0.16565 -0.09516,-0.21359 -0.04089,-0.0479 -0.09516,-0.0923 -0.162836,-0.13322 -0.06626,-0.0423 -0.113492,-0.0797 -0.141688,-0.11209 -0.0282,-0.0338 -0.0423,-0.0867 -0.0423,-0.1586 0,-0.10433 0.04088,-0.18258 0.122655,-0.23474 0.101508,-0.0634 0.17341,-0.11702 0.215705,-0.16072 0.0437,-0.0451 0.07402,-0.10221 0.09093,-0.17129 0.01833,-0.0705 0.0289,-0.14663 0.03172,-0.2284 0.0028,-0.0832 0.007,-0.28196 0.01269,-0.59636 0.0042,-0.19455 0.06556,-0.34964 0.183983,-0.46524 0.119836,-0.11702 0.279147,-0.17553 0.477934,-0.17553 0.207245,0 0.310867,0.0839 0.310867,0.25166 0,0.0761 -0.01762,0.13605 -0.05287,0.17975 -0.03384,0.0437 -0.07825,0.0691 -0.133229,0.0761 -0.08177,0.0113 -0.138869,0.0282 -0.171295,0.0508 -0.03243,0.0225 -0.05357,0.0663 -0.06344,0.13111 -0.0099,0.0648 -0.01621,0.19033 -0.01903,0.37643 -0.0028,0.18187 -0.0141,0.33131 -0.03384,0.44832 -0.01833,0.11561 -0.05569,0.2143 -0.112082,0.29607 -0.05498,0.0818 -0.135344,0.15579 -0.241081,0.22205 z m 4.356334,-2.47727 v 5.01697 c 0,0.58333 -0.47288,1.05621 -1.056206,1.05621 h -4.224824 c -0.583326,0 -1.056206,-0.47288 -1.056205,-1.05621 v -6.33723 c 0,-0.58333 0.472879,-1.05621 1.056205,-1.05621 h 2.904566 z m -1.584309,0 c -0.437495,0 -0.792155,-0.35466 -0.792155,-0.79216 v -1.0562 h -2.904566 c -0.291663,0 -0.528103,0.23644 -0.528103,0.5281 v 6.33723 c 0,0.29167 0.23644,0.52811 0.528103,0.52811 h 4.224824 c 0.291663,0 0.528103,-0.23644 0.528103,-0.52811 v -5.01697 z"/>
</svg>