<svg xmlns="http://www.w3.org/2000/svg" viewBox="11.77 135.65 8.50 10.50">
  <defs>
    <linearGradient id="g" x1="0" y1="0" x2="0" y2="1">
      <stop offset="0%" stop-color="#b8f5ec"/>
      <stop offset="100%" stop-color="#90e8dc"/>
    </linearGradient>
  </defs>
  <path fill="url(#g)" d="m 18.76586,139.05494 v 5.01698 a 1.0562058,1.0562058 0 0 1 -1.056205,1.05621 h -4.224824 a 1.0562058,1.0562058 0 0 1 -1.056204,-1.05621 v -6.33723 a 1.0562058,1.0562058 0 0 1 1.056204,-1.05621 h 2.904568 z"/>
  <path fill="#008080" d="m 13.686405,142.6352 v 0.26922 c 0,0.32312 0.28077,0.56314 0.610956,0.71331 0.344626,0.15659 0.809582,0.24933 1.314326,0.24933 0.504745,0 0.969701,-0.0927 1.314327,-0.24933 0.330186,-0.15017 0.610956,-0.39019 0.610956,-0.71331 v -0.26922 c -0.146642,0.13862 -0.322164,0.24098 -0.478112,0.31189 -0.395325,0.1797 -0.90745,0.27821 -1.447171,0.27821 -0.53972,0 -1.051846,-0.0985 -1.44717,-0.27821 -0.155948,-0.0706 -0.33147,-0.17327 -0.478112,-0.31189 m 0,-0.96264 v 0.26921 c 0,0.32313 0.28077,0.56315 0.610956,0.71332 0.344626,0.15659 0.809582,0.24933 1.314326,0.24933 0.504745,0 0.969701,-0.0927 1.314327,-0.24933 0.330186,-0.15017 0.610956,-0.39019 0.610956,-0.71332 v -0.26921 c -0.146642,0.13862 -0.322164,0.24098 -0.478112,0.31189 -0.395325,0.17969 -0.90745,0.2782 -1.447171,0.2782 -0.53972,0 -1.051846,-0.0985 -1.44717,-0.2782 -0.155948,-0.0706 -0.33147,-0.17327 -0.478112,-0.31189 m 0,-0.96265 v 0.26922 c 0,0.32313 0.28077,0.56315 0.610956,0.71332 0.344626,0.15627 0.809582,0.24932 1.314326,0.24932 0.504745,0 0.969701,-0.0927 1.314327,-0.24932 0.330186,-0.15017 0.610956,-0.39019 0.610956,-0.71332 v -0.26922 c -0.146642,0.13862 -0.322164,0.24099 -0.478112,0.3119 -0.395325,0.17969 -0.90745,0.2782 -1.447171,0.2782 -0.53972,0 -1.051846,-0.0985 -1.44717,-0.2782 -0.155948,-0.0706 -0.33147,-0.17328 -0.478112,-0.3119 m 0.610956,-1.40674 c 0.344626,-0.15659 0.809582,-0.24932 1.314326,-0.24932 0.504745,0 0.969701,0.0927 1.314327,0.24932 0.330186,0.15018 0.610956,0.3902 0.610956,0.71332 0,0.32313 -0.28077,0.56315 -0.610956,0.71332 -0.344626,0.15659 -0.809582,0.24932 -1.314327,0.24932 -0.504744,0 -0.9697,-0.0927 -1.314326,-0.24932 -0.330186,-0.15017 -0.610956,-0.39019 -0.610956,-0.71332 0,-0.32312 0.28077,-0.56314 0.610956,-0.71332 m 4.4685,-0.24823 v 5.01698 a 1.0562058,1.0562058 0 0 1 -1.056206,1.0562 h -4.224823 a 1.0562058,1.0562058 0 0 1 -1.056206,-1.0562 v -6.33724 a 1.0562058,1.0562058 0 0 1 1.056206,-1.0562 h 2.904566 z m -1.584309,0 a 0.79215434,0.79215434 0 0 1 -0.792154,-0.79215 v -1.05621 h -2.904566 a 0.52810289,0.52810289 0 0 0 -0.528103,0.5281 v 6.33724 a 0.52810289,0.52810289 0 0 0 0.528103,0.5281 h 4.224823 a 0.52810289,0.52810289 0 0 0 0.528103,-0.5281 v -5.01698 z"/>
</svg>