<svg xmlns="http://www.w3.org/2000/svg" viewBox="11.74 39.62 8.50 10.50">
  <defs>
    <linearGradient id="g" x1="0" y1="0" x2="0" y2="1">
      <stop offset="0%" stop-color="#b8d4f5"/>
      <stop offset="100%" stop-color="#90bce8"/>
    </linearGradient>
  </defs>
  <path fill="url(#g)" d="m 18.744778,43.021699 v 5.01698 a 1.0562058,1.0562058 0 0 1 -1.056205,1.05621 h -4.224824 a 1.0562058,1.0562058 0 0 1 -1.056204,-1.05621 v -6.33723 a 1.0562058,1.0562058 0 0 1 1.056204,-1.05621 h 2.904568 z"/>
  <path fill="#0055a0" d="m 13.727801,47.246527 a 0.26405145,0.26405145 0 0 1 0.264052,-0.264051 h 1.584308 a 0.2640515,0.2640515 0 0 1 0,0.528103 h -1.584308 a 0.26405145,0.26405145 0 0 1 -0.264052,-0.264052 m 0,-1.056206 a 0.26405145,0.26405145 0 0 1 0.264052,-0.264051 h 3.168617 a 0.2640515,0.2640515 0 0 1 0,0.528103 h -3.168617 a 0.26405145,0.26405145 0 0 1 -0.264052,-0.264052 m 0.865561,-1.958205 0.702377,0.467899 0.979102,-0.979631 a 0.13202573,0.13202573 0 0 1 0.152622,-0.02482 l 0.997058,0.514373 v 0.92418 a 0.26405145,0.26405145 0 0 1 -0.264051,0.264051 h -3.168617 a 0.26405145,0.26405145 0 0 1 -0.264052,-0.264051 v -0.264052 c 0,0 0.813279,-0.672803 0.865561,-0.637948 m 0.05862,-0.418258 a 0.39607718,0.39607718 0 1 0 0,-0.792154 0.39607718,0.39607718 0 0 0 0,0.792154 m 4.092797,-0.792155 v 5.016978 a 1.0562058,1.0562058 0 0 1 -1.056206,1.056205 H 13.46375 a 1.0562058,1.0562058 0 0 1 -1.056206,-1.056205 v -6.337235 a 1.0562058,1.0562058 0 0 1 1.056206,-1.056206 h 2.904566 z m -1.584309,0 A 0.79215435,0.79215435 0 0 1 16.368316,42.22955 V 41.173344 H 13.46375 a 0.5281029,0.5281029 0 0 0 -0.528103,0.528103 v 6.337235 a 0.5281029,0.5281029 0 0 0 0.528103,0.528102 h 4.224823 a 0.5281029,0.5281029 0 0 0 0.528103,-0.528102 v -5.016978 z"/>
</svg>