<svg xmlns="http://www.w3.org/2000/svg" viewBox="11.76 247.75 8.50 10.50">
  <defs>
    <linearGradient id="g" x1="0" y1="0" x2="0" y2="1">
      <stop offset="0%" stop-color="#c8d0d8"/>
      <stop offset="100%" stop-color="#a8b4c0"/>
    </linearGradient>
  </defs>
  <path fill="url(#g)" d="m 18.762257,251.14775 v 5.01698 a 1.0562058,1.0562058 0 0 1 -1.056205,1.05621 h -4.224824 a 1.0562058,1.0562058 0 0 1 -1.056204,-1.05621 v -6.33723 a 1.0562058,1.0562058 0 0 1 1.056204,-1.05621 h 2.904568 z"/>
  <path fill="#405060" d="m 16.04155,252.31222 a 0.32714079,0.32714079 0 0 1 0.463231,0 l 1.308563,1.30856 a 0.32714079,0.32714079 0 0 1 0,0.46323 l -1.308563,1.30857 a 0.32755696,0.32755696 0 0 1 -0.463231,-0.46324 l 1.077601,-1.07694 -1.077601,-1.07695 a 0.32714079,0.32714079 0 0 1 0,-0.46323 m -0.845332,0 a 0.32714079,0.32714079 0 0 0 -0.463232,0 l -1.308563,1.30856 a 0.32714079,0.32714079 0 0 0 0,0.46323 l 1.308563,1.30857 a 0.32755732,0.32755732 0 0 0 0.463232,-0.46324 l -1.077602,-1.07694 1.077602,-1.07695 a 0.32714079,0.32714079 0 0 0 0,-0.46323 m 3.56604,-1.16447 v 5.01698 a 1.0562058,1.0562058 0 0 1 -1.056206,1.05621 h -4.224823 a 1.0562058,1.0562058 0 0 1 -1.056206,-1.05621 v -6.33723 a 1.0562058,1.0562058 0 0 1 1.056206,-1.05621 h 2.904566 z m -1.584309,0 a 0.79215435,0.79215435 0 0 1 -0.792154,-0.79215 v -1.05621 h -2.904566 a 0.5281029,0.5281029 0 0 0 -0.528103,0.52811 v 6.33723 a 0.5281029,0.5281029 0 0 0 0.528103,0.5281 h 4.224823 a 0.5281029,0.5281029 0 0 0 0.528103,-0.5281 v -5.01698 z"/>
</svg>