<svg xmlns="http://www.w3.org/2000/svg" viewBox="11.76 23.62 8.50 10.50">
  <defs>
    <linearGradient id="g" x1="0" y1="0" x2="0" y2="1">
      <stop offset="0%" stop-color="#f5b8b8"/>
      <stop offset="100%" stop-color="#e89090"/>
    </linearGradient>
  </defs>
  <path fill="url(#g)" d="m 18.755349,27.015017 v 5.01698 a 1.0562058,1.0562058 0 0 1 -1.056205,1.05621 H 13.47432 a 1.0562058,1.0562058 0 0 1 -1.056204,-1.05621 v -6.33723 a 1.0562058,1.0562058 0 0 1 1.056204,-1.05621 h 2.904568 z"/>
  <path fill="#a01515" d="m 13.792767,32.077945 a 0.42248232,0.42248232 0 0 1 -0.231309,-0.221804 c -0.10298,-0.204904 -0.06865,-0.409808 0.04225,-0.581969 0.104564,-0.162128 0.277782,-0.299963 0.473708,-0.415617 a 4.0663923,4.0663923 0 0 1 0.782649,-0.340626 10.562058,10.562058 0 0 0 0.560845,-1.176086 3.8551512,3.8551512 0 0 1 -0.227084,-0.683893 c -0.04542,-0.211241 -0.06284,-0.42037 -0.02429,-0.599925 0.03961,-0.186948 0.1447,-0.354885 0.343267,-0.434628 0.101396,-0.04066 0.211241,-0.06337 0.317918,-0.04066 a 0.36967203,0.36967203 0 0 1 0.251905,0.192757 c 0.04647,0.08661 0.06337,0.188005 0.06707,0.28412 0.0037,0.09928 -0.0063,0.209128 -0.02482,0.324255 -0.04436,0.269332 -0.142588,0.598868 -0.274613,0.947416 a 5.8091319,5.8091319 0 0 0 0.51754,0.890382 3.0629968,3.0629968 0 0 1 0.70449,0.02641 c 0.192229,0.03486 0.387627,0.10298 0.506978,0.245568 0.06337,0.07605 0.101924,0.168993 0.105621,0.273557 0.0037,0.101396 -0.02482,0.201735 -0.07288,0.297322 a 0.54922702,0.54922702 0 0 1 -0.186949,0.219691 0.45416849,0.45416849 0 0 1 -0.269332,0.07288 c -0.174802,-0.0074 -0.345379,-0.103508 -0.49272,-0.220219 a 3.0101865,3.0101865 0 0 1 -0.481102,-0.501698 6.1788039,6.1788039 0 0 0 -1.054621,0.21441 5.9675628,5.9675628 0 0 1 -0.538665,0.797436 c -0.154206,0.184836 -0.321615,0.346435 -0.489552,0.415617 a 0.42248232,0.42248232 0 0 1 -0.306299,0.01532 m 0.728254,-1.003924 q -0.132026,0.06073 -0.2424,0.125688 c -0.173217,0.102452 -0.285703,0.202264 -0.341682,0.288873 -0.04964,0.07657 -0.0507,0.132025 -0.02112,0.190645 q 0.0084,0.0169 0.01373,0.02324 l 0.01848,-0.0063 c 0.07235,-0.02957 0.187476,-0.124104 0.335345,-0.302075 a 4.2248232,4.2248232 0 0 0 0.237647,-0.32003 m 0.866088,-0.702377 a 6.8653377,6.8653377 0 0 1 0.533384,-0.101924 6.3372348,6.3372348 0 0 1 -0.269332,-0.453112 11.090161,11.090161 0 0 1 -0.264052,0.554508 z m 1.29174,0.237646 q 0.119351,0.129386 0.229725,0.216523 c 0.126744,0.100339 0.214938,0.13361 0.262995,0.135194 a 0.05281029,0.05281029 0 0 0 0.03697,-0.0079 0.15843087,0.15843087 0 0 0 0.04964,-0.06601 0.23236528,0.23236528 0 0 0 0.03116,-0.105621 0.05281029,0.05281029 0 0 0 -0.01373,-0.03327 c -0.02746,-0.03274 -0.10562,-0.08027 -0.273557,-0.110373 A 2.1124116,2.1124116 0 0 0 16.678858,30.6099 Z m -1.050925,-1.851528 a 3.6967203,3.6967203 0 0 0 0.105621,-0.43727 q 0.02429,-0.148925 0.02007,-0.245567 a 0.31686174,0.31686174 0 0 0 -0.0169,-0.104565 0.26405145,0.26405145 0 0 0 -0.07657,0.02112 c -0.04594,0.01848 -0.08344,0.05598 -0.103509,0.149453 -0.02112,0.101396 -0.01584,0.247681 0.02429,0.434101 q 0.01901,0.08819 0.04753,0.182724 z M 18.75535,32.032 v -5.016978 l -2.376463,-2.376463 h -2.904566 a 1.0562058,1.0562058 0 0 0 -1.056206,1.056206 V 32.032 a 1.0562058,1.0562058 0 0 0 1.056206,1.056205 h 4.224823 A 1.0562058,1.0562058 0 0 0 18.75535,32.032 m -2.376463,-5.809132 a 0.79215435,0.79215435 0 0 0 0.792154,0.792154 h 1.056206 V 32.032 a 0.5281029,0.5281029 0 0 1 -0.528103,0.528102 H 13.474321 A 0.5281029,0.5281029 0 0 1 12.946218,32.032 v -6.337235 a 0.5281029,0.5281029 0 0 1 0.528103,-0.528103 h 2.904566 z"/>
</svg>