<svg xmlns="http://www.w3.org/2000/svg" viewBox="11.77 279.58 8.50 10.50">
  <defs>
    <linearGradient id="g" x1="0" y1="0" x2="0" y2="1">
      <stop offset="0%" stop-color="#dce0b8"/>
      <stop offset="100%" stop-color="#c8cc90"/>
    </linearGradient>
  </defs>
  <path fill="url(#g)" d="m 18.765861,282.97742 v 5.01698 a 1.0562058,1.0562058 0 0 1 -1.056205,1.05621 h -4.224824 a 1.0562058,1.0562058 0 0 1 -1.056204,-1.05621 v -6.33723 a 1.0562058,1.0562058 0 0 1 1.056204,-1.05621 H 16.3894 Z"/>
  <path fill="#606010" d="m 18.765862,282.97742 v 5.01698 c 0,0.58333 -0.47288,1.05621 -1.056206,1.05621 h -4.224823 c -0.583327,0 -1.056206,-0.47288 -1.056206,-1.05621 v -6.33723 c 0,-0.58333 0.472879,-1.05621 1.056206,-1.05621 h 2.904566 z m -1.584309,0 c -0.437495,0 -0.792154,-0.35466 -0.792154,-0.79215 v -1.05621 h -2.904566 c -0.291664,0 -0.528103,0.23644 -0.528103,0.52811 v 6.33723 c 0,0.29166 0.236439,0.5281 0.528103,0.5281 h 4.224823 c 0.291663,0 0.528103,-0.23644 0.528103,-0.5281 v -5.01698 z m -0.720147,0.34479 a 0.13229167,0.13229167 0 0 1 0.06006,0.15346 l -0.476514,1.54834 h 0.87921 a 0.13229167,0.13229167 0 0 1 0.09631,0.22304 l -2.116666,2.24896 a 0.13229167,0.13229167 0 0 1 -0.222779,-0.12965 l 0.476514,-1.5486 h -0.87921 a 0.13229167,0.13229167 0 0 1 -0.09631,-0.22305 l 2.116666,-2.24895 a 0.13229167,0.13229167 0 0 1 0.162719,-0.0238 z"/>
</svg>