<svg xmlns="http://www.w3.org/2000/svg" viewBox="11.77 55.63 8.50 10.50">
  <defs>
    <linearGradient id="g" x1="0" y1="0" x2="0" y2="1">
      <stop offset="0%" stop-color="#c8f5b8"/>
      <stop offset="100%" stop-color="#a0e890"/>
    </linearGradient>
  </defs>
  <path fill="url(#g)" d="m 18.772526,59.033333 v 5.01698 a 1.0562058,1.0562058 0 0 1 -1.056205,1.05621 h -4.224824 a 1.0562058,1.0562058 0 0 1 -1.056204,-1.05621 v -6.33723 a 1.0562058,1.0562058 0 0 1 1.056204,-1.05621 h 2.904568 z"/>
  <path fill="#308010" d="m 18.772527,64.050316 v -5.016978 l -2.376463,-2.376463 h -2.904566 a 1.0562058,1.0562058 0 0 0 -1.056206,1.056206 v 6.337235 a 1.0562058,1.0562058 0 0 0 1.056206,1.056205 h 4.224823 a 1.0562058,1.0562058 0 0 0 1.056206,-1.056205 m -2.376463,-5.809132 a 0.79215435,0.79215435 0 0 0 0.792154,0.792154 h 1.056206 v 2.376463 h -5.281029 v -3.69672 a 0.5281029,0.5281029 0 0 1 0.528103,-0.528103 h 2.904566 z M 12.963395,62.99411 V 61.937904 H 14.0196 v 1.056206 z m 0,0.528103 H 14.0196 v 1.056205 h -0.528102 a 0.5281029,0.5281029 0 0 1 -0.528103,-0.528102 z m 1.584308,1.056205 v -1.056205 h 1.584309 v 1.056205 z m 2.112412,0 v -1.056205 h 1.584309 v 0.528103 a 0.5281029,0.5281029 0 0 1 -0.528103,0.528102 z m 1.584309,-1.584308 h -1.584309 v -1.056206 h 1.584309 z m -3.696721,0 v -1.056206 h 1.584309 v 1.056206 z"/>
</svg>