<svg xmlns="http://www.w3.org/2000/svg" viewBox="11.82 167.62 8.50 10.50">
  <defs>
    <linearGradient id="g" x1="0" y1="0" x2="0" y2="1">
      <stop offset="0%" stop-color="#d0d4d8"/>
      <stop offset="100%" stop-color="#b0b8c0"/>
    </linearGradient>
  </defs>
  <path fill="url(#g)" d="m 18.817354,171.01741 v 5.01698 a 1.0562058,1.0562058 0 0 1 -1.056205,1.05621 h -4.224824 a 1.0562058,1.0562058 0 0 1 -1.056204,-1.05621 v -6.33723 a 1.0562058,1.0562058 0 0 1 1.056204,-1.05621 h 2.904568 z"/>
  <path fill="#404850" d="m 16.06545,171.82878 c -0.109273,-0.37041 -0.634206,-0.37041 -0.743479,0 l -0.02646,0.09 a 0.38735,0.38735 0 0 1 -0.556948,0.23072 l -0.08202,-0.045 c -0.33946,-0.18468 -0.710671,0.18653 -0.525727,0.52573 l 0.04471,0.0823 c 0.118005,0.21696 0.0061,0.4871 -0.230716,0.55695 l -0.08996,0.0265 c -0.370416,0.10927 -0.370416,0.6342 0,0.74348 l 0.08996,0.0265 a 0.38735,0.38735 0 0 1 0.230716,0.55695 l -0.04498,0.082 c -0.184679,0.33946 0.186532,0.71067 0.525727,0.52573 l 0.08229,-0.0447 a 0.38735,0.38735 0 0 1 0.556948,0.23071 l 0.02646,0.09 c 0.109273,0.37042 0.634206,0.37042 0.743479,0 l 0.02646,-0.09 a 0.38735,0.38735 0 0 1 0.556947,-0.23071 l 0.08202,0.045 c 0.339461,0.18468 0.710671,-0.18653 0.525727,-0.52572 l -0.04471,-0.0823 a 0.38735,0.38735 0 0 1 0.230716,-0.55695 l 0.08996,-0.0265 c 0.370416,-0.10928 0.370416,-0.63421 0,-0.74348 l -0.08996,-0.0265 a 0.38735,0.38735 0 0 1 -0.230716,-0.55695 l 0.04498,-0.082 c 0.184679,-0.33946 -0.186531,-0.71067 -0.525727,-0.52573 l -0.08229,0.0447 a 0.38735,0.38735 0 0 1 -0.556947,-0.23072 z m -0.371739,2.61409 a 0.77523,0.77523 0 1 1 0,-1.55046 0.774965,0.774965 0 0 1 0,1.54993 z m 3.123644,1.59152 v -5.01698 l -2.376463,-2.37646 h -2.904566 a 1.0562058,1.0562058 0 0 0 -1.056206,1.0562 v 6.33724 a 1.0562058,1.0562058 0 0 0 1.056206,1.0562 h 4.224823 a 1.0562058,1.0562058 0 0 0 1.056206,-1.0562 m -2.376463,-5.80914 a 0.79215434,0.79215434 0 0 0 0.792154,0.79216 h 1.056206 v 5.01698 a 0.5281029,0.5281029 0 0 1 -0.528103,0.5281 h -4.224823 a 0.5281029,0.5281029 0 0 1 -0.528103,-0.5281 v -6.33724 a 0.5281029,0.5281029 0 0 1 0.528103,-0.5281 h 2.904566 z"/>
</svg>