<svg xmlns="http://www.w3.org/2000/svg" viewBox="11.79 184.10 8.50 11.00">
  <defs>
    <linearGradient id="g" x1="0" y1="0" x2="0" y2="1">
      <stop offset="0%" stop-color="#f5ecb8"/>
      <stop offset="100%" stop-color="#e8dc90"/>
    </linearGradient>
  </defs>
  <path fill="url(#g)" d="m 18.786474,187.09745 v 5.01698 a 1.0562058,1.0562058 0 0 1 -1.056205,1.05621 h -4.224824 a 1.0562058,1.0562058 0 0 1 -1.056204,-1.05621 v -6.33723 a 1.0562058,1.0562058 0 0 1 1.056204,-1.05621 h 2.904568 z"/>
  <path fill="#907000" d="m 18.786475,187.09745 v 5.01698 a 1.0562058,1.0562058 0 0 1 -1.056206,1.05621 h -4.224823 a 1.0562058,1.0562058 0 0 1 -1.056206,-1.05621 v -6.33723 a 1.0562058,1.0562058 0 0 1 1.056206,-1.05621 h 2.904566 z m -1.584309,0 a 0.79215435,0.79215435 0 0 1 -0.792154,-0.79215 v -1.05621 h -1.056206 v 0.52811 h -0.528103 v 0.5281 h 0.528103 v 0.5281 h -0.528103 v 0.5281 h 0.528103 v 0.52811 h -0.792155 v -0.52811 h -0.528102 v -0.5281 h 0.528102 v -0.5281 h -0.528102 v -0.5281 h 0.528102 v -0.52811 h -1.056205 a 0.5281029,0.5281029 0 0 0 -0.528103,0.52811 v 6.33723 a 0.5281029,0.5281029 0 0 0 0.528103,0.5281 h 4.224823 a 0.5281029,0.5281029 0 0 0 0.528103,-0.5281 v -5.01698 z m -3.168617,1.58431 a 0.5281029,0.5281029 0 0 1 0.528102,-0.5281 h 0.528103 a 0.5281029,0.5281029 0 0 1 0.528103,0.5281 v 0.49536 l 0.211241,0.84444 a 0.5281029,0.5281029 0 0 1 -0.21969,0.56718 l -0.491136,0.32743 a 0.5281029,0.5281029 0 0 1 -0.586194,0 l -0.490608,-0.32743 a 0.5281029,0.5281029 0 0 1 -0.219163,-0.56718 l 0.211242,-0.84444 z m 1.056205,0 h -0.528103 v 0.49536 a 0.5281029,0.5281029 0 0 1 -0.01584,0.12833 l -0.211241,0.84391 0.491136,0.32742 0.490607,-0.32742 -0.211241,-0.84391 a 0.5281029,0.5281029 0 0 1 -0.01532,-0.12833 z"/>
</svg>