<svg xmlns="http://www.w3.org/2000/svg" viewBox="11.79 200.09 8.50 11.00">
  <defs>
    <linearGradient id="g" x1="0" y1="0" x2="0" y2="1">
      <stop offset="0%" stop-color="#d8b8f5"/>
      <stop offset="100%" stop-color="#c090e8"/>
    </linearGradient>
  </defs>
  <path fill="url(#g)" d="m 18.792398,203.09209 v 5.01698 a 1.0562058,1.0562058 0 0 1 -1.056205,1.05621 h -4.224824 a 1.0562058,1.0562058 0 0 1 -1.056204,-1.05621 v -6.33723 a 1.0562058,1.0562058 0 0 1 1.056204,-1.05621 h 2.904568 z"/>
  <path fill="#6020a0" d="m 18.792399,208.10907 v -5.01698 l -2.376463,-2.37646 H 13.51137 a 1.0562058,1.0562058 0 0 0 -1.056206,1.05621 v 6.33723 a 1.0562058,1.0562058 0 0 0 1.056206,1.05621 h 4.224823 a 1.0562058,1.0562058 0 0 0 1.056206,-1.05621 m -2.376463,-5.80913 a 0.79215435,0.79215435 0 0 0 0.792154,0.79215 h 1.056206 v 5.01698 a 0.5281029,0.5281029 0 0 1 -0.528103,0.5281 H 13.51137 a 0.5281029,0.5281029 0 0 1 -0.528103,-0.5281 v -6.33723 a 0.5281029,0.5281029 0 0 1 0.528103,-0.52811 h 2.904566 z m 0.792154,1.92229 a 0.5281029,0.5281029 0 0 0 -0.656432,-0.51226 l -0.528103,0.13203 a 0.5281029,0.5281029 0 0 0 -0.399774,0.51226 v 2.27401 a 1.3730675,1.3730675 0 0 0 -0.528103,-0.10351 c -0.264051,0 -0.514372,0.0708 -0.706601,0.1991 -0.190117,0.12674 -0.349604,0.33165 -0.349604,0.59306 0,0.26141 0.158958,0.46631 0.349604,0.59306 0.192229,0.12832 0.443078,0.19909 0.706601,0.19909 0.263524,0 0.514373,-0.0708 0.706602,-0.19909 0.190117,-0.12675 0.349604,-0.33165 0.349604,-0.59306 v -1.90646 l 1.056206,-0.26405 z"/>
</svg>