<svg xmlns="http://www.w3.org/2000/svg" viewBox="11.77 120.05 8.50 11.00">
  <defs>
    <linearGradient id="g" x1="0" y1="0" x2="0" y2="1">
      <stop offset="0%" stop-color="#b8f5c8"/>
      <stop offset="100%" stop-color="#90e8a8"/>
    </linearGradient>
  </defs>
  <path fill="url(#g)" d="m 18.765861,123.05013 v 5.01698 a 1.0562058,1.0562058 0 0 1 -1.056205,1.05621 h -4.224824 a 1.0562058,1.0562058 0 0 1 -1.056204,-1.05621 v -6.33723 a 1.0562058,1.0562058 0 0 1 1.056204,-1.05621 H 16.3894 Z"/>
  <path fill="#108030" d="m 14.78867,123.73152 a 0.2409741,0.2409741 0 0 0 -0.207811,0.12375 l -0.810036,1.45488 a 0.2409741,0.2409741 0 0 0 0.0026,0.23904 l 0.841982,1.43663 a 0.2409741,0.2409741 0 0 0 0.210494,0.11913 l 1.648162,-0.0182 a 0.2409741,0.2409741 0 0 0 0.207811,-0.12375 l 0.810278,-1.45489 a 0.2409741,0.2409741 0 0 0 -0.0026,-0.23903 l -0.842222,-1.43663 a 0.2409741,0.2409741 0 0 0 -0.210495,-0.11913 z m 1.234946,2.32298 a 0.72292231,0.72292231 0 1 1 -0.736711,-1.24404 0.72292231,0.72292231 0 0 1 0.736711,1.24404 m 2.742246,-3.00436 v 5.01698 a 1.0562058,1.0562058 0 0 1 -1.056206,1.0562 h -4.224823 a 1.0562058,1.0562058 0 0 1 -1.056206,-1.0562 v -6.33724 a 1.0562058,1.0562058 0 0 1 1.056206,-1.0562 h 2.904566 z m -1.584309,0 a 0.79215437,0.79215437 0.26209582 0 1 -0.792154,-0.79215 v -1.05621 h -2.904566 a 0.52810292,0.52810292 0 0 0 -0.528103,0.5281 v 6.33724 a 0.52810292,0.52810292 0 0 0 0.528103,0.5281 h 4.224823 a 0.52810292,0.52810292 0 0 0 0.528103,-0.5281 v -5.01698 z"/>
</svg>