<svg xmlns="http://www.w3.org/2000/svg" viewBox="11.77 264.09 8.50 11.00">
  <defs>
    <linearGradient id="g" x1="0" y1="0" x2="0" y2="1">
      <stop offset="0%" stop-color="#e8d8c0"/>
      <stop offset="100%" stop-color="#d4c0a0"/>
    </linearGradient>
  </defs>
  <path fill="url(#g)" d="m 18.76586,267.09335 v 5.01698 a 1.0562058,1.0562058 0 0 1 -1.056205,1.05621 h -4.224824 a 1.0562058,1.0562058 0 0 1 -1.056204,-1.05621 v -6.33723 a 1.0562058,1.0562058 0 0 1 1.056204,-1.05621 h 2.904568 z"/>
  <path fill="#705020" d="m 15.600159,268.04895 c -0.260615,-0.2241 -0.63844,-0.25744 -0.982398,-0.22304 -0.400579,0.0405 -0.804863,0.1778 -1.056746,0.29236 a 0.13229166,0.13229166 0 0 0 -0.07752,0.12039 v 2.91041 a 0.13229166,0.13229166 0 0 0 0.18706,0.12039 c 0.233363,-0.10583 0.609336,-0.2331 0.973667,-0.26987 0.372798,-0.0376 0.685271,0.023 0.852752,0.23203 a 0.13229166,0.13229166 0 0 0 0.206375,0 c 0.167481,-0.20902 0.479954,-0.26961 0.852488,-0.23203 0.364595,0.0368 0.740833,0.16404 0.973931,0.26987 a 0.13229166,0.13229166 0 0 0 0.18706,-0.12039 v -2.91041 a 0.13229166,0.13229166 0 0 0 -0.07752,-0.12039 c -0.251883,-0.11456 -0.656166,-0.25188 -1.056745,-0.29236 -0.343959,-0.0347 -0.721784,-0.001 -0.982398,0.22304 m 3.165702,-0.95559 v 5.01698 c 0,0.58332 -0.47288,1.0562 -1.056206,1.0562 h -4.224823 c -0.583326,0 -1.056206,-0.47288 -1.056206,-1.0562 v -6.33724 c 0,-0.58332 0.47288,-1.0562 1.056206,-1.0562 h 2.904566 z m -1.584309,0 c -0.437494,0 -0.792154,-0.35466 -0.792154,-0.79216 v -1.0562 h -2.904566 c -0.291663,0 -0.528103,0.23644 -0.528103,0.5281 v 6.33724 c 0,0.29166 0.23644,0.5281 0.528103,0.5281 h 4.224823 c 0.291663,0 0.528103,-0.23644 0.528103,-0.5281 v -5.01698 z"/>
</svg>