<svg xmlns="http://www.w3.org/2000/svg" viewBox="11.72 152.06 8.50 11.00">
  <defs>
    <linearGradient id="g" x1="0" y1="0" x2="0" y2="1">
      <stop offset="0%" stop-color="#e8b8f5"/>
      <stop offset="100%" stop-color="#d490e8"/>
    </linearGradient>
  </defs>
  <path fill="url(#g)" d="m 18.716571,155.06318 v 5.01698 a 1.0562058,1.0562058 0 0 1 -1.056205,1.05621 h -4.224824 a 1.0562058,1.0562058 0 0 1 -1.056204,-1.05621 v -6.33723 a 1.0562058,1.0562058 0 0 1 1.056204,-1.05621 h 2.904568 z"/>
  <path fill="#8020a0" d="m 18.716572,155.06318 v 5.01698 a 1.0562058,1.0562058 0 0 1 -1.056206,1.05621 h -4.224823 a 1.0562058,1.0562058 0 0 1 -1.056206,-1.05621 v -6.33723 a 1.0562058,1.0562058 0 0 1 1.056206,-1.05621 h 2.904566 z m -1.584309,0 a 0.79215435,0.79215435 0 0 1 -0.792154,-0.79215 v -1.05621 h -2.904566 a 0.5281029,0.5281029 0 0 0 -0.528103,0.52811 v 6.33723 a 0.5281029,0.5281029 0 0 0 0.528103,0.5281 h 4.224823 a 0.5281029,0.5281029 0 0 0 0.528103,-0.5281 v -5.01698 z m -0.0301,0.79216 h -3.108414 l -0.0301,1.0562 H 14.2277 c 0.09506,-0.5788 0.188005,-0.6295 0.894606,-0.6522 l 0.154734,-0.005 v 2.68804 c 0,0.24821 -0.05281,0.30735 -0.474236,0.34591 v 0.26405 h 1.489778 v -0.26405 c -0.424066,-0.0386 -0.476877,-0.0972 -0.476877,-0.34538 v -2.68857 l 0.157375,0.005 c 0.706602,0.0227 0.799548,0.0739 0.894606,0.6522 h 0.264052 l -0.0301,-1.0562 z"/>
</svg>