<svg xmlns="http://www.w3.org/2000/svg" viewBox="11.77 88.03 8.50 11.00">
  <defs>
    <linearGradient id="g" x1="0" y1="0" x2="0" y2="1">
      <stop offset="0%" stop-color="#b8e0f5"/>
      <stop offset="100%" stop-color="#90c8e8"/>
    </linearGradient>
  </defs>
  <path fill="url(#g)" d="m 18.772506,91.030954 v 5.01698 a 1.0562058,1.0562058 0 0 1 -1.056205,1.05621 h -4.224824 a 1.0562058,1.0562058 0 0 1 -1.056204,-1.05621 v -6.33723 a 1.0562058,1.0562058 0 0 1 1.056204,-1.05621 h 2.904568 z"/>
  <path fill="#0070a0" d="m 18.772507,96.047937 a 1.0562058,1.0562058 0 0 1 -1.056206,1.056205 h -4.224823 a 1.0562058,1.0562058 0 0 1 -1.056206,-1.056205 v -6.337235 a 1.0562058,1.0562058 0 0 1 1.056206,-1.056206 h 2.904566 l 2.376463,2.376463 z m -5.281029,-6.865338 a 0.5281029,0.5281029 0 0 0 -0.528103,0.528103 v 5.281029 l 1.174501,-1.174501 a 0.26405145,0.26405145 0 0 1 0.322142,-0.03961 l 1.143871,0.686006 1.139118,-1.594871 a 0.26405145,0.26405145 0 0 1 0.401358,-0.03327 l 1.100039,1.100038 v -2.904566 h -1.056206 a 0.79215435,0.79215435 0 0 1 -0.792154,-0.792154 v -1.056206 z m 1.321313,3.168617 a 0.79215435,0.79215435 0 1 0 0,-1.584308 0.79215435,0.79215435 0 0 0 0,1.584308"/>
</svg>