<svg xmlns="http://www.w3.org/2000/svg" viewBox="11.77 72.07 8.50 11.00">
  <defs>
    <linearGradient id="g" x1="0" y1="0" x2="0" y2="1">
      <stop offset="0%" stop-color="#f5d4b8"/>
      <stop offset="100%" stop-color="#e8bc90"/>
    </linearGradient>
  </defs>
  <path fill="url(#g)" d="m 18.770626,75.074054 v 5.01698 a 1.0562058,1.0562058 0 0 1 -1.056205,1.05621 h -4.224824 a 1.0562058,1.0562058 0 0 1 -1.056204,-1.05621 v -6.33723 a 1.0562058,1.0562058 0 0 1 1.056204,-1.05621 h 2.904568 z"/>
  <path fill="#a05010" d="m 18.770627,80.091037 v -5.016978 l -2.376463,-2.376463 h -2.904566 a 1.0562058,1.0562058 0 0 0 -1.056206,1.056206 v 6.337235 a 1.0562058,1.0562058 0 0 0 1.056206,1.056205 h 4.224823 a 1.0562058,1.0562058 0 0 0 1.056206,-1.056205 m -2.376463,-5.809132 a 0.79215435,0.79215435 0 0 0 0.792154,0.792154 h 1.056206 v 5.016978 a 0.5281029,0.5281029 0 0 1 -0.528103,0.528103 h -4.224823 a 0.5281029,0.5281029 0 0 1 -0.528103,-0.528103 v -6.337235 a 0.5281029,0.5281029 0 0 1 0.528103,-0.528103 h 2.904566 z m -2.376463,1.584308 a 0.26405145,0.26405145 0 0 0 -0.26194,0.231309 l -0.264051,2.112412 a 0.26405145,0.26405145 0 0 0 0.261939,0.296794 h 1.584309 v 1.064655 c -0.455753,0.02905 -0.792155,0.132554 -0.792155,0.255602 0,0.145757 0.472652,0.264052 1.056206,0.264052 0.583554,0 1.056206,-0.118295 1.056206,-0.264052 0,-0.123048 -0.336402,-0.226556 -0.792154,-0.255602 v -1.064655 h 1.584308 a 0.26405145,0.26405145 0 0 0 0.261939,-0.296794 l -0.264051,-2.112412 a 0.26405145,0.26405145 0 0 0 -0.261939,-0.231309 z m 1.056205,1.996229 v -1.351943 c 0,-0.0507 0.05598,-0.08238 0.10034,-0.05598 l 1.124859,0.675444 a 0.06601286,0.06601286 0 0 1 0,0.113014 l -1.124859,0.675971 a 0.06601286,0.06601286 0 0 1 -0.10034,-0.05756 z"/>
</svg>