<svg xmlns="http://www.w3.org/2000/svg" viewBox="11.77 104.05 8.50 11.00">
  <defs>
    <linearGradient id="g" x1="0" y1="0" x2="0" y2="1">
      <stop offset="0%" stop-color="#c8b8f5"/>
      <stop offset="100%" stop-color="#a890e8"/>
    </linearGradient>
  </defs>
  <path fill="url(#g)" d="m 18.76586,107.04533 v 5.01698 a 1.0562058,1.0562058 0 0 1 -1.056205,1.05621 h -4.224824 a 1.0562058,1.0562058 0 0 1 -1.056204,-1.05621 v -6.33723 a 1.0562058,1.0562058 0 0 1 1.056204,-1.05621 h 2.904568 z"/>
  <path fill="#5030a0" d="m 13.258987,107.54613 a 0.50453226,0.50453226 0 0 1 0.504532,-0.50454 h 0.336355 a 0.50453226,0.50453226 0 0 1 0.504532,0.50454 h 1.390491 a 0.33635484,0.33635484 0 1 1 0,0.33635 h -0.676073 q 0.09048,0.0908 0.162796,0.2035 c 0.214594,0.33366 0.300028,0.79178 0.300028,1.3101 0,0.67035 0.08644,1.04001 0.239821,1.24451 0.119742,0.16011 0.301038,0.24251 0.601066,0.2637 a 0.50453226,0.50453226 0 0 1 0.504532,-0.49915 h 0.336355 a 0.50453226,0.50453226 0 0 1 0.504533,0.50454 v 0.33635 a 0.50453226,0.50453226 0 0 1 -0.504533,0.50453 h -0.336355 a 0.50453226,0.50453226 0 0 1 -0.504532,-0.50453 h -1.390491 a 0.33635484,0.33635484 0 1 1 0,-0.33635 h 0.575503 a 1.0090645,1.0090645 0 0 1 -0.0555,-0.0673 c -0.225021,-0.30036 -0.306756,-0.77126 -0.306756,-1.44632 0,-0.49108 -0.08274,-0.87351 -0.246548,-1.12847 -0.131178,-0.2035 -0.32021,-0.33636 -0.594339,-0.37403 a 0.50453226,0.50453226 0 0 1 -0.504532,0.49343 h -0.336355 a 0.50453226,0.50453226 0 0 1 -0.504532,-0.50453 z m 0.504532,-0.16818 a 0.16817742,0.16817742 0 0 0 -0.168177,0.16818 v 0.33635 a 0.16817742,0.16817742 0 0 0 0.168177,0.16818 h 0.336355 a 0.16817742,0.16817742 0 0 0 0.168177,-0.16818 v -0.33635 a 0.16817742,0.16817742 0 0 0 -0.168177,-0.16818 z m 3.363548,3.36355 a 0.16817742,0.16817742 0 0 0 -0.168177,0.16818 v 0.33635 a 0.16817742,0.16817742 0 0 0 0.168177,0.16818 h 0.336355 a 0.16817742,0.16817742 0 0 0 0.168178,-0.16818 v -0.33635 a 0.16817742,0.16817742 0 0 0 -0.168178,-0.16818 z m 1.638794,-3.69617 v 5.01698 a 1.0562058,1.0562058 0 0 1 -1.056206,1.05621 h -4.224823 a 1.0562058,1.0562058 0 0 1 -1.056206,-1.05621 v -6.33723 a 1.0562058,1.0562058 0 0 1 1.056206,-1.05621 h 2.904566 z m -1.584308,0 a 0.79215436,0.79215436 0 0 1 -0.792155,-0.79215 v -1.05621 h -2.904566 a 0.5281029,0.5281029 0 0 0 -0.528103,0.52811 v 6.33723 a 0.5281029,0.5281029 0 0 0 0.528103,0.52811 h 4.224823 a 0.5281029,0.5281029 0 0 0 0.528103,-0.52811 v -5.01698 z"/>
</svg>