<svg xmlns="http://www.w3.org/2000/svg" viewBox="11.76 216.04 8.50 11.00">
  <defs>
    <linearGradient id="g" x1="0" y1="0" x2="0" y2="1">
      <stop offset="0%" stop-color="#f5b8e8"/>
      <stop offset="100%" stop-color="#e890d4"/>
    </linearGradient>
  </defs>
  <path fill="url(#g)" d="m 18.756227,219.03705 v 5.01698 a 1.0562058,1.0562058 0 0 1 -1.056205,1.05621 h -4.224824 a 1.0562058,1.0562058 0 0 1 -1.056204,-1.05621 v -6.33723 a 1.0562058,1.0562058 0 0 1 1.056204,-1.05621 h 2.904568 z"/>
  <path fill="#a01080" d="m 18.756228,224.05403 v -5.01698 l -2.376463,-2.37646 h -2.904566 a 1.0562058,1.0562058 0 0 0 -1.056206,1.05621 v 6.33723 a 1.0562058,1.0562058 0 0 0 1.056206,1.05621 h 4.224823 a 1.0562058,1.0562058 0 0 0 1.056206,-1.05621 m -2.376463,-5.80913 a 0.79215435,0.79215435 0 0 0 0.792154,0.79215 h 1.056206 v 5.01698 a 0.5281029,0.5281029 0 0 1 -0.528103,0.5281 h -4.224823 a 0.5281029,0.5281029 0 0 1 -0.528103,-0.5281 v -6.33723 a 0.5281029,0.5281029 0 0 1 0.528103,-0.52811 h 2.904566 z m -1.848361,2.05062 v 2.23599 a 0.26405145,0.26405145 0 0 0 0.399774,0.22656 l 1.863147,-1.118 a 0.26405145,0.26405145 0 0 0 0,-0.45311 l -1.863147,-1.11799 a 0.26405145,0.26405145 0 0 0 -0.399774,0.22708 z"/>
</svg>